<svg width="603" height="403" viewBox="0 0 603 403" fill="none" xmlns="http://www.w3.org/2000/svg">
<path fill-rule="evenodd" clip-rule="evenodd" d="M0 21.5C0 9.62588 9.62588 0 21.5 0H581.5C593.374 0 603 9.62588 603 21.5V381.5C603 393.374 593.374 403 581.5 403H21.5C9.6259 403 0 393.374 0 381.5V21.5ZM21.5 3C11.2827 3 3 11.2827 3 21.5V52.5H600V21.5C600 11.2827 591.717 3 581.5 3H21.5ZM600 55.5H3V381.5C3 391.717 11.2827 400 21.5 400H581.5C591.717 400 600 391.717 600 381.5V55.5ZM21.5 9C14.0442 9 8 15.0442 8 22.5C8 29.9558 14.0442 36 21.5 36C28.9558 36 35 29.9558 35 22.5C35 15.0442 28.9558 9 21.5 9ZM5 22.5C5 13.3873 12.3873 6 21.5 6C30.6127 6 38 13.3873 38 22.5C38 31.6127 30.6127 39 21.5 39C12.3873 39 5 31.6127 5 22.5ZM61.5 9C54.0442 9 48 15.0442 48 22.5C48 29.9558 54.0442 36 61.5 36C68.9558 36 75 29.9558 75 22.5C75 15.0442 68.9558 9 61.5 9ZM45 22.5C45 13.3873 52.3873 6 61.5 6C70.6127 6 78 13.3873 78 22.5C78 31.6127 70.6127 39 61.5 39C52.3873 39 45 31.6127 45 22.5ZM101.5 9C94.0442 9 88 15.0442 88 22.5C88 29.9558 94.0442 36 101.5 36C108.956 36 115 29.9558 115 22.5C115 15.0442 108.956 9 101.5 9ZM85 22.5C85 13.3873 92.3873 6 101.5 6C110.613 6 118 13.3873 118 22.5C118 31.6127 110.613 39 101.5 39C92.3873 39 85 31.6127 85 22.5Z" fill="black"/>
</svg>
